<svg xmlns="http://www.w3.org/2000/svg" viewBox="0 0 240 190" role="img" aria-label="豚の貯金箱">
  <defs>
    <linearGradient id="body" x1="0" y1="0" x2="1" y2="1">
      <stop offset="0" stop-color="#ffb6c7"/>
      <stop offset="1" stop-color="#f47f9c"/>
    </linearGradient>
    <linearGradient id="snout" x1="0" y1="0" x2="0" y2="1">
      <stop offset="0" stop-color="#ffd2dc"/>
      <stop offset="1" stop-color="#f7a1b5"/>
    </linearGradient>
    <filter id="shadow" x="-30%" y="-30%" width="160%" height="180%">
      <feDropShadow dx="0" dy="8" stdDeviation="7" flood-color="#9b5c35" flood-opacity=".22"/>
    </filter>
  </defs>
  <ellipse cx="120" cy="174" rx="78" ry="10" fill="#d7b89b" opacity=".28"/>
  <g filter="url(#shadow)">
    <path d="M70 54 45 28c-5-5-13-1-12 6l6 39z" fill="#ee7894" stroke="#7a3d4b" stroke-width="5" stroke-linejoin="round"/>
    <path d="M171 54 196 28c5-5 13-1 12 6l-6 39z" fill="#ee7894" stroke="#7a3d4b" stroke-width="5" stroke-linejoin="round"/>
    <path d="M37 108c0-42 36-72 83-72 47 0 83 30 83 72 0 30-20 53-51 63H87c-30-10-50-33-50-63z"
          fill="url(#body)" stroke="#7a3d4b" stroke-width="6" stroke-linejoin="round"/>
    <path d="M79 165v16h24l5-15" fill="#ef829d" stroke="#7a3d4b" stroke-width="6" stroke-linejoin="round"/>
    <path d="M141 165l5 16h24v-19" fill="#ef829d" stroke="#7a3d4b" stroke-width="6" stroke-linejoin="round"/>
    <path d="M202 102c18-4 25 9 18 20-5 8-16 7-19 1" fill="none" stroke="#7a3d4b" stroke-width="6" stroke-linecap="round"/>
    <ellipse cx="119" cy="116" rx="39" ry="29" fill="url(#snout)" stroke="#7a3d4b" stroke-width="5"/>
    <ellipse cx="103" cy="117" rx="6" ry="9" fill="#7a3d4b"/>
    <ellipse cx="135" cy="117" rx="6" ry="9" fill="#7a3d4b"/>
    <circle cx="88" cy="86" r="6" fill="#302228"/>
    <circle cx="151" cy="86" r="6" fill="#302228"/>
    <path d="M92 45h56" stroke="#7a3d4b" stroke-width="7" stroke-linecap="round"/>
    <path d="M99 60c11-6 30-6 41 0" fill="none" stroke="#ffdbe4" stroke-width="5" stroke-linecap="round" opacity=".8"/>
    <circle cx="164" cy="57" r="20" fill="#f8c83e" stroke="#a96e00" stroke-width="5"/>
    <path d="M164 45v24M154 57h20" stroke="#fff7cf" stroke-width="4" stroke-linecap="round"/>
  </g>
</svg>